<mxfile host="app.diagrams.net" modified="2024-03-30T23:05:47.237Z" agent="Mozilla/5.0 (Windows NT 10.0; Win64; x64) AppleWebKit/537.36 (KHTML, like Gecko) Chrome/123.0.0.0 Safari/537.36" etag="kZe6A0b3thc6Zf-Z4CK0" version="24.2.1" type="device">
  <diagram name="Page-1" id="u7Ppcs34NskUnmpAHDP9">
    <mxGraphModel dx="1050" dy="530" grid="1" gridSize="10" guides="1" tooltips="1" connect="1" arrows="1" fold="1" page="1" pageScale="1" pageWidth="850" pageHeight="1100" math="0" shadow="0">
      <root>
        <mxCell id="0" />
        <mxCell id="1" parent="0" />
        <mxCell id="GfOAhC3EE9k9zHnXR_BB-4" value="" style="rounded=0;whiteSpace=wrap;html=1;fillColor=none;" vertex="1" parent="1">
          <mxGeometry x="79.68" width="600" height="600" as="geometry" />
        </mxCell>
        <mxCell id="GfOAhC3EE9k9zHnXR_BB-3" value="" style="shape=image;verticalLabelPosition=bottom;labelBackgroundColor=default;verticalAlign=top;aspect=fixed;imageAspect=0;image=data:image/png,iVBORw0KGgoAAAANSUhEUgAAAD4AAAA/CAMAAACPQ4vTAAAAAXNSR0IArs4c6QAAAARnQU1BAACxjwv8YQUAAAA2UExURSQvPjI8Sltjbq2xt9bY2////8jLz3Z9hj9JVru+w4SKkpGXnmhwevHy8+Tl55+kq01WYgAAADeSZgkAAAASdFJOU///////////////////////AOK/vxIAAAAJcEhZcwAAFxEAABcRAcom8z8AAAHJSURBVFhH7ZXZbsQgDEWB4LDZIv//tb02TKu2JF1Uqa2U8xAygPF2w7ibm5ubX8H7+bLkejVskYj25FwuJetMLcVWWmEs66p0m1gQsGok54k2nRKigOEgYldhi990Zh/Ur/lwrujDZeyuGGGZcaIZJsRxBVwFl2CArSSk0Rc8MW35fATcIAoN123EJJgSajrdxoZTPKcUhrlo8kJe4BM5wDGSiu0iAN+tcADmHW4zRYwJqUdd18JbX9Y0LFZOGHQLkWcUi2lH6iNsrlr5sxQePRnmQjgI+SMKTWByIIR1AsjQAsOozeoEEUFlQmHEPkADjvn6mllaj5arOWpuZiiCRTX1yqf9Q2KdW8R2bZb9xKBaVH+VSksJ1R0yfk/WwlAMWi2AnSowBGWxqwIVW1uTWleLMAINI8k8R8dt264a//cJzPoJf4u8WfXsKnhDOhXzC1yPwH1d/Bg/cQDIU9tvgb5UbteEzCaHBRAk6Z14iocm+2aaXOGtNKUutRFahCxTloscMz4YIND38TjE56N2uytkz47XmT8IozmGSBS7nA3Z9MDLfwqjmqvXyF4/Nnwm9X3aAdn78QXbic/MfIR//Y3d3Nz8EM49AVMtDrss2bgLAAAAAElFTkSuQmCC;" vertex="1" parent="1">
          <mxGeometry x="80" width="39.37" height="40" as="geometry" />
        </mxCell>
        <mxCell id="GfOAhC3EE9k9zHnXR_BB-6" value="" style="shape=image;verticalLabelPosition=bottom;labelBackgroundColor=default;verticalAlign=top;aspect=fixed;imageAspect=0;image=data:image/png,iVBORw0KGgoAAAANSUhEUgAABIkAAAIsCAMAAABBbQkNAAAAAXNSR0IArs4c6QAAAARnQU1BAACxjwv8YQUAAADhUExURQAAAAAAAAAAAAAAAAAAAAAAAAAAAAAAAAAAAAAAAAAAAAAAAAAAAAAAAAAAAAAAAAAAAAAAAAAAAAAAAAAAAAAAAAAAAAAAAAAAAAAAAAAAAAAAAAAAAAAAAAAAAAAAAAAAAAAAAAAAAAAAAAAAAAAAAAAAAAAAAAAAAAAAAAAAAAAAAAAAAAAAAAAAAAAAAAAAAAAAAAAAAAAAAAAAAAAAAAAAAAAAAAAAAAAAAIxP/5Na/5pl/6Jw/6l7/7CG/7eR/76c/8an/82y/9S9/9vI/+LT/+ne//Hp//j0/////89eu00AAAA5dFJOUwAECAoOFRkdICEkKCssLzY8QkVHSVBYXWJkaG13eYCEhomNkpiZnZ6ipq+ys7i/wMXMzdLX4e70+V3VUH4AAAAJcEhZcwAAFxEAABcRAcom8z8AABCrSURBVHhe7d1tm9vGYYZRSU7sOnUcOa1jJXXzIreJa7W2K9WyV6vdlbSvxP//QZ3BDEGCpFYKlFyPr/icDxIXBAfAh7kFgOTqzjOANCUC8pQIyHvXEt0BeDe1JC0oi/WRAJaqJWlBWayPBLBULUkLymJ9JIClaklaUBbrIwEsVUvSgrJYHwlgqVqSFpTF+kgAS9WStKAs1kcCWKqWpAVlz8nLy+vV6uby4kVf8Bp9JIClaklaUHacXg/D6vry4uJqGIbzvvCgPhLAUrUkLSgzxxfD6tXJcfvh7Gq4ft4eHtJHAliqlqQFZdvx5XDeMzR6Maxen6I+EsBStSQtKNvOh5f9UXc6XPdH+/pIAEvVkrSgbDnbvzF0Nrwqf26fJ036SABL1ZK0oGy5utlPzuXqxfVqGC73r9L6SABL1ZK0oGycjOc/O54Pw+ri/HJYnfQFkz4SwFK1JC0oGy+HQ7enr6/ridLJatV+3OgjASxVS9KCsnF50x/MtSu2092b2UoEvKtakhaUjavXv09W3OyeFPWRAJaqJWlB2bi+6g8OOh92bmf3kWYeHH3/8/6weHD0+L173/3wq/7j6O4/9Qevs/uCPW9c4Y2b6N440OTuo6Pf9IfVw+9/fuhAj7r/+/KjvvzO3d99Wxd8/t740/233R78VNSStKCsHZ/e3HpOdDZcvZrdR+ojzXz4dGvKlrn5+93p/i9Pt6f0Ie9cojdvoltaovvlsA4daOvQ6Pftic+e9p9/GFe++2g7X8B+iU6vh9VFf7zvpJTqajUM21+K7SPNlCn7uP37X9yfnTeMdk4uDnn7Phz2FpvoFpbo3nflEPcPtJSor/P+F0dt4AdHR19+XP7+5Ouj9lxtGLBRS9KC0rxcrV4e/PxicVwqdVPf4C9/b72X30eau98nYVEm61f94eQfoUQPxsd7B7op0frI7x8dfTYtGKN899G7HRv8o6klaUEZna3G9+oPOX5VzpbOb4bh/Pmz4+GyLy36SHPjhUrz4dP9afcWmfixl+jed2NU9g50q0SlQe20aToDWl/MOSmCmVqSFpTR9YFPV49Oz1fDVT1bOrsYhsuT9df0qz7SjofTVUt71KZ7mYH3nx49+ct406TeZWnXbevZ+8EX/1uWf/NpWzb1oU7oequl3QHuY/xqXOFhn/ZtpK3XlyuicRMlH78rC3/483QN1XzwRRnwm3HA9ZbGFftd5f09e3r0w+c/2yrRg36mt3+gm3XGy7XZxelvfz2ufK9lDGhqSVpQqvbtsj31smx1tb4gOyktutq6UdRH2jGdCfWZuS7Rf5UAPP63nomd+d7qUfx5esGolOg/xuXjDd8+Rns37v7UgxKd7ddPJfrg6/HR5iJqVFo2LtzsWtmZcVFbcWfP+upPvp4qM50e7R/otE7d8ffKnqxTtfH2J2zwk1BL0oJSHf50dVm8Gt8uO35xXS7NxgXD5q52H2lHmWutEf197nWJjh5/dOcX65k4n+8lBfXMpaSjrjorUYnLe/WJuvp6jHGFe+trpPJ4/vq+ifLXk4/rOc32mUndYBnjg3a7uW2pLHpSTqZ+2TYy37P63Ed37taArgMy7d7+gU7rtKce9udn1mdUQFVL0oJSXRz+dHUL1PNygVZcntZFq82Noj7Srn5RUmbjeEukzdxSkXGa9kzM5/v65KHdTJmm+viqPkb9ez1GW+HhuNbs5KO9vm9iOiMZz5rWZtVoA60/GdQ2srtn7adyojVuuthcc+0d6Hqdf25JnG14bdxhoKslaUGpLve+VDaqJTq9XA1Xr4bLcml2XS7Nbt5Yoj4j1+8trUvU5u/BEq21n2Yl6rN+zMr6p/WIdZ6vbxeN2uvbJvqGitncn9VhHGgdkr6R2Z5Nz23t51S49cLNgY4XcqPx4u9gidbjA1UtSQtKdf7aEp0Oq4uTZ8f1PtLLm/Lnm0tUZmC9AFlfm6y70ebva0v0i3/97V+ejmcesxL1WT9GaP1TW+Huo61ubL++bWK7C5u5v+lTNQ602YVxI7M9m57bet3W5dXugfbNHX37+fgh74NXZ4feUISfrlqSFpTqtfeJnp+NnyAaS1Quzc7fpkTjZG5XSsXblOjDfnP5tSUa15+X6M6D8ueDdtoxe/1tJZrSMtopUd/vrT2bnjtcot0DndZpNmdPxfv9GyhKBNtqSVpQql6aXctKNE7baRq+RYnqjelv//PzX/9y/z5RH+TAOVEZ4zf9g4Lz108lqhvasVWUYqdEf/U50e6BTus0s+isV1Mi2FZL0oIyul4d+jzRshLVWbf5AM6tJRpPKMqyr/osrU/OStRWa/N4p0R3H3314dO6ZOf1bRPlzwN3acoVU1s6XjmNA21WHDeyu2ftua3KTOUpdg50WqfZ3oXyZHu8Hh+oaklaUEYnw6Hv4S8sUZnhn02XRK8pUavN+J7UNIUf7l+dtfnb5vFOie48+P7fxxfuvL5v4sHR9+0b8dvpqEvrfrWXtIF23zvb2rPpuYPvnY0DbB/otE5Xdn/9bY+H/bb2dBBAVUvSgtK8GN8Z27GwRDUJ0+nAXonqE2XWbj6nU5Y9LtEYP4k49WFUL7v+sPV5onmJymnLWIGd12828cOn5ac/biJSlKXt80T1lW2gui9lxU/aRmZ7tvNTH2Havd0D3d7QqGz7m4/LPkzfgK1NO3AbG36yaklaULrTm2G4ud5ytrxEpRHTdJ2XaJy7ZS62T0If/WmcvTU41R/GhsxK9KTdix6X7JaoJ2f39etNlJ1o1qkY9aXjCH2g9Ypt1NmerZ/77+karG51E5z5gW490fXBytibr8LurQQ/YbUkLSiTs/Orbe9QojLfpn/5d0p094v6hY32izKefNpn7yf/U+bqlx+ViVuempXo8c/+WCZ7++7YbonGd89Gs9dPm2jfO9v81rJm/N5ZWzglbet7Zzt7Vs6pdr93tv6eSTU/0AOReb8OvRm7pGt9MQcUtSQtKLdYWqK/lalfPyb33uVLrP1jB0BTS9KCcgslOuQdauKXNsJcLUkLyi1eDCd7JXrTN2D/ln6cJRp/Z+Myfj0RzNWStKDc4mw4Oxt/YWwr0cnw6vnW/1fdR/o7+nGWaHlPnBLBjlqSFpRb1ACt6geNWoleDaelTeMzVR/p7+hHWqL6f3v0R38d/7cH7KglaUG5zc2q5Ke0ZyzR89Xls8utz2L3kQCWqiVpQbnNy+Hk+GZ1Opbo5Hp1UmM06SMBLFVL0oJym+PhppwKDZevhsvz1ers2fkw/rq0po8EsFQtSQvKrc6Gi2fHF/VXNtbfZ/1y6361EgHvrJakBeV2F8Pl8bNnp6cnx8+Oz4er7W/s95EAlqolaUF5g/NhOD87fX5ydl6u0ma/OqSPBLBULUkLypvU/1yoXZ5t3SOq+kgAS9WStKC8hbMXL1+e7v0qtT4SwFK1JC0oi/WRAJaqJWlBWayPBLBULUkLymJ9JIClaklaUBbrIwEsVUvSgrJYHwlgqVqSFpTF+kgAS9WStKAs1kcCWKqWpAVlsT4SwFK1JC0oi/WRAJaqJWlBWayPBLBULYmaAFlKBOQpEZCnRECeEgF5SgTkKRGQp0RAnhIBeUoE5CkRkKdEQJ4SAXlKBOQpEZCnRECeEgF5SgTkKRGQp0RAnhIBeUoE5CkRkKdEQJ4SAXlKBOQpEZCnRECeEgF5SgTkKRGQp0RAnhIBeUoE5CkRkKdEQJ4SAXlKBOQpEZCnRECeEgF5SgTkKRGQp0RAnhIBeUoE5CkRkKdEQJ4SAXlKBOQpEZCnRECeEgF5SgTkKRGQp0RAnhIBeUoE5CkRkKdEQJ4SAXlKBOQpEZCnRECeEgF5SgTkKRGQp0RAnhIBeUoE5CkRkKdEQJ4SAXlKBOQpEZCnRECeEgF5SgTkKRGQp0RAnhIBeUoE5CkRkKdEQJ4SAXlKBOQpEZCnRECeEgF5SgTkKRGQp0RAnhIBeUoE5CkRkKdEQJ4SAXlKBOQpEZCnRECeEgF5SgTkKRGQp0RAnhIBeUoE5CkRkKdEQJ4SAXlKBOQpEZCnRECeEgF5SgTkKRGQp0RAnhIBeUoE5CkRkKdEQJ4SAXlKBOQpEZCnRECeEgF5SgTkKRGQp0RAnhIBeUoE5CkRkKdEQJ4SAXlKBOQpEZCnRECeEgF5SgTkKRGQp0RAnhIBeUoE5CkRkKdEQJ4SAXlKBOQpEZCnRECeEgF5SgTkKRGQp0RAnhIBeUoE5CkRkKdEQJ4SAXlKBOQpEZCnRECeEgF5SgTkKRGQp0RAnhIBeUoE5CkRkKdEQJ4SAXlKBOQpEZCnRECeEgF5SgTkKRGQp0RAnhIBeUoE5CkRkKdEQJ4SAXlKBOQpEZCnRECeEgF5SgTkKRGQp0RAnhIBeUoE5CkRkKdEQJ4SAXlKBOQpEZCnRECeEgF5SgTkKRGQp0RAnhIBeUoE5CkRkKdEQJ4SAXlKBOQpEZCnRECeEgF5SgTkKRGQp0RAnhIBeUoE5CkRkKdEQJ4SAXlKBOQpEZCnRECeEgF5SgTkKRGQp0RAnhIBeUoE5CkRkKdEQJ4SAXlKBOQpEZCnRECeEgF5SgTkKRGQp0RAnhIBeUoE5CkRkKdEQJ4SAXlKBOQpEZCnRECeEgF5SgTkKRGQp0RAnhIBeUoE5CkRkKdEQJ4SAXlKBOQpEZCnRECeEgF5SgTkKRGQp0RAnhIBeUoE5CkRkKdEQJ4SAXlKBOQpEZCnRECeEgF5SgTkKRGQp0RAnhIBeUoE5CkRkKdEQJ4SAXlKBOQpEZCnRECeEgF5SgTkKRGQp0RAnhIBeUoE5CkRkKdEQJ4SAXlKBOQpEZCnRECeEgF5SgTkKRGQp0RAnhIBeUoE5CkRkKdEQJ4SAXlKBOQpEZCnRECeEgF5SgTkKRGQp0RAnhIBeUoE5CkRkKdEQJ4SAXlKBOQpEZCnRECeEgF5SgTkKRGQp0RAnhIBeUoE5CkRkKdEQJ4SAXlKBOQpEZCnRECeEgF5SgTkKRGQp0RAnhIBeUoE5CkRkKdEQJ4SAXlKBOQpEZCnRECeEgF5SgTkKRGQp0RAnhIBeUoE5CkRkKdEQJ4SAXlKBOQpEZCnRECeEgF5SgTkKRGQp0RAnhIBeUoE5CkRkKdEQJ4SAXlKBOQpEZCnRECeEgF5SgTkKRGQp0RAnhIBeUoE5CkRkKdEQJ4SAXlKBOQpEZCnRECeEgF5SgTkKRGQp0RAnhIBeUoE5CkRkKdEQJ4SAXlKBOQpEZCnRECeEgF5SgTkKRGQp0RAnhIBeUoE5CkRkKdEQJ4SAXlKBOQpEZCnRECeEgF5SgTkKRGQp0RAnhIBeUoE5CkRkKdEQJ4SAXlKBOQpEZCnRECeEgF5SgTkKRGQp0RAnhIBeUoE5CkRkKdEQJ4SAXlKBOQpEZCnRECeEgF5SgTkKRGQp0RAnhIBeUoE5CkRkKdEQJ4SAXlKBOQpEZCnRECeEgF5SgTkKRGQp0RAnhIBeUoE5CkRkKdEQJ4SAXlKBOQpEZCnRECeEgF5SgTkKRGQp0RAnhIBeUoE5CkRkKdEQJ4SAXlKBOQpEZCnRECeEgF5SgTkKRGQp0RAnhIBeUoE5CkRkKdEQJ4SAXlKBOQpEZCnRECeEgF5SgTkKRGQp0RAnhIBeUoE5CkRkKdEQJ4SAXlKBOQpEZCnRECeEgF5SgTkKRGQp0RAnhIBeUoE5PUSAWQpEZCnREDas2f/D2UHq1AHRMC7AAAAAElFTkSuQmCC;" vertex="1" parent="1">
          <mxGeometry x="119.37" y="320" width="520.63" height="249.32" as="geometry" />
        </mxCell>
        <mxCell id="GfOAhC3EE9k9zHnXR_BB-7" value="" style="shape=image;verticalLabelPosition=bottom;labelBackgroundColor=default;verticalAlign=top;aspect=fixed;imageAspect=0;image=data:image/png,iVBORw0KGgoAAAANSUhEUgAAAWQAAAJ9CAMAAAA19PjcAAAAAXNSR0IArs4c6QAAAARnQU1BAACxjwv8YQUAAACiUExURQAAAAAAAAAAAAAAAAAAAAAAAAAAAAAAAAAAAAAAAAAAAAAAAAAAAAAAAAAAAAAAAAAAAAAAAAAAAAAAAAAAAAAAAAAAAAAAAAAAAAAAAAAAAAAAAACjpQAAAAAAAAAAAAAAAAAAAAAAAAAAAAAAAAAAAAAAAAAAAAAAAAAAAAAAAAAAAAAAAAAAAAAAAAAAAAAAAAAAAAAAAAAAAAAAAACkpoETlZ0AAAA0dFJOUwAECAoOFRodICEkKywvNjxCRUdJUFhiZGh3eYCAhIaNkpiZnZ6ir7K4v8DFzM3S1+Hu9Pm8cHZAAAAACXBIWXMAABcRAAAXEQHKJvM/AAAKlElEQVR4Xu3ZC3cb1RVAYZw+XDe0Btq4pThVKMXpI4QYK///r/Wce+9IM5KNE6KzV6bZ31oEa0bWY+toJM/97O3k+rPhemxIbgwfuDGMTcV39AlvvL6+NnKq3Bg/tv9UyMiADJyHDBVyigFGBhgZYGSAkQFGBhgZYGRA/iHiHyMApxlgZICRAUYGGBlgZICRAaePfLXdfjN+fNiTN3d/nP5dutz+8KvxY5hfb7r22e/argOX272ffjM2vrfL7bPx06mMhdRx6UTOXm4Xme73AZG/ur23w0kiX9yePHIGPnnki9sfX73rI308cje/XryIP3/rT968wzvpftF4HZE325ur7c248IiKyLH/8TfSvc7+Go1LIp/63EXM0bOL2+N296qIvPmlB4uLV9vt88feJu/v5FMcLuM5Rof+ht2Mh3xxm0/8/EU8je1//pxberYp3nxPRP51jNTd90/z0vx67d/4WA3f7F6K6S4ml9t+kzmYcaM/ft2uFg/gt3nxdbuLse/uu8Wrebl9/fTRY9H7K4jc+2bpvHQ5jhub3NjzhO9iyyLyYk8813+3C3f5dB+KfPay/WZsW85tHFXHATmPr6ldL95b+TKGtve838Pu9WjO//D42+QXKIjcjxR5zMhLI0GrE086JyeeX7/G/t/lnvyWEBfjUv7u/Hr939HhqueaXsYh7nhcjp9ybD/vN5PFn+9uNG7idRQ9fzFmYW8dka/623gz3s2bzBIl4tLYk883nsc823JPRG75+peEByNf3I47WkTZH5Cvxk/9ZuKm2432GZjusL/D5lYReRrh6aPvsj2LRYl+lXm2Sd8zHWp6igcj9+PFwdHian9Anj4W+s1Mj6fdxb7k0YfsKiLP/iJob9uzl+0ZTiV+/6e//LN/FT2MvN+ze+Kt9oORI15UXB4t4t6nRNOrPW5meghtc/yzs3iNVhJ5Mx576A//KrqMw+fF+LQ5jrzYs4vcwjwcuR0vDt8ju+T7yO1m/p8i96Pq+KmXvX02vgjkkP/3H19/+fnRMXm5510nOW92cbSIHeM3wz7yvZM89h0piHzyhdTp0yaMj76zlzf9Iyoe/k1LcPTBd7DnHY/J7XixOFps5t/I4lrLY/Is8n7fkd2Nn9Ypp3n+6Kfj49VPf2s/7MYnjijxwyzbwZ74xXYjsTn+/zORn7y5mR8tZgfkdPjtYhY597W/dPoLMLeCyPu/ttrTaVMW49meXzz8H+KZtT8D4nnMsh3syYPH/ivtvZHHK7m5e9XTpen4NIn7z+/JX0zfk+eR49+72Hf29+XrElYQefp23IyvU7smGS89bxvm2ZZ74pj8bbvYfv04cg58f/3i9/ZHi91fjU2UiupN+51l5N2+5esSPv7I8QxmD3oarfx+0Xzxr3jG3z/t79FFtsWeiNzOXfQTC/dEPnsxTliPYt1R5MNzF/PI49xFPz0yt4JJhj15c3BE/WitOPL4/r0C64183o8ea7DWyPnxt4pBLllIhcQH3fKc+8cqA6/4mLwORgZk4FMvpOqAUwwwMsDIACMDjAwwMsDIACMDTr6Qqvs5zQAjA4wMMDLAyAAjA4wMMHKxNS+krkYGNnIxIwMysOcuijnFACMDjAwwMsDIACMDjAwwMsCFVIjTDDAywMgAIwOMDDAywMgAIxdzIRWQgY1czMiADOy5i2JOMcDIACMDjAwwMsDIACMDjAxwIRXiNAOMDDAywMgAIwOMDDAywMjFXEgFZGAjFzMyIAN77qKYUwwwMsDIACMDjAwwMsDIACMDXEiFOM0AIwOMDDAywMgAIwOMDDByMRdSARnYyMWMDMjAnrso5hQDjAwwMsDIACMDjAwwMsDIABdSIU4zwMgAIwOMDDAywMgAIwOMXMyFVEAGNnIxIwMysOcuijnFACMDjAwwMsDIACMDjAwwMsCFVIjTDDAywMgAIwOMDDAywMgAIxdzIRWQgY1czMiADOy5i2JOMcDIACMDjAwwMsDIACMDjAxwIRXiNAOMDDAywMgAIwOMDDAywMjFXEgFZGAjFzMyIAN77qKYUwwwMsDIACMDjAwwMsDIACMDXEiFOM0AIwOMDDAywMgAIwOMDDByMRdSARnYyMWMDMjAnrso5hQDjAwwMsDIACMDjAwwMsDIABdSIU4zwMgAIwOMDDAywMgAIwOMXMyFVEAGNnIxIwMysOcuijnFACMDjAwwMsDIACMDjAwwMsCFVIjTDDAywMgAIwOMDDAywMgAIxdzIRWQgY1czMiADOy5i2JOMcDIACMDjAwwMsDIACMDjAxwIRXiNAOMDDAywMgAIwOMDDAywMjFXEgFZGAjFzMyIAN77qKYUwwwMsDIACMDjAwwMsDIACMDXEiFOM0AIwOMDDAywMgAIwOMDDByMRdSARnYyMWMDMjAnrso5hQDjAwwMsDIACMDjAwwMsDIABdSIU4zwMgAIwOMDDAywMgAIwOMXMyFVEAGNnIxIwMysOcuijnFACMDjAwwMsDIACMDjAwwMsCFVIjTDDAywMgAIwOMDDAywMgAIxdzIRWQgY1czMiADOy5i2JOMcDIACMDjAwwMsDIACMDjAxwIRXiNAOMDDAywMgAIwOMDDAywMjFXEgFZGAjFzMyIAN77qKYUwwwMsDIACMDjAwwMsDIACMDXEiFOM0AIwOMDDAywMgAIwOMDDByMRdSARnYyMWMDMjAnrso5hQDjAwwMsDIACMDjAwwMsDIABdSIU4zwMgAIwOMDDAywMgAIwOMXMyFVEAGNnIxIwMysOcuijnFACMDjAwwMsDIACMDjAwwMsCFVIjTDDAywMgAIwOMDDAywMgAIxdzIRWQgY1czMiADOy5i2JOMcDIACMDjAwwMsDIACMDjAxwIRXiNAOMDDAywMgAIwOMDDAywMjFXEgFZGAjFzMyIAN77qKYUwwwMsDIACMDjAwwMsDIACMDXEiFOM0AIwOMDDAywMgAIwOMDDByMRdSARnYyMWMDMjAnrso5hQDjAwwMsDIACMDjAwwMsDIABdSIU4zwMgAIwOMDDAywMgAIwOMXMyFVEAGNnIxIwMysOcuijnFACMDjAwwMsDIACMDjAwwMsCFVIjTDDAywMgAIwOMDDAywMgAIxdzIRWQgY1czMiADOy5i2JOMcDIACMDjAwwMsDIACMDjAxwIRXiNAOMDDAywMgAIwOMDDAywMjFXEgFZGAjFzMyIAN77qKYUwwwMsDIACMDjAwwMsDIACMDXEiFOM0AIwOMDDAywMgAIwOMDDByMRdSARnYyMWMDMjAnrso5hQDjAwwMsDIACMDjAwwMsDIABdSIU4zwMgAIwOMDDAywMgAIwOMXMyFVEAGNnIxIwMysOcuijnFACMDjAwwMsDIACMDjAwwMsCFVIjTDDAywMgAIwOMDDAywMgAIxdzIRWQgY1czMiADOy5i2JOMcDIACMDjAwwMsDIACMDjAxwIRXiNAOMDDAywMgAIwOMDDAywMjFXEgFZGAjFzMyIAN77qKYUwwwMsDIACMDjAwwMsDIACMDXEiFOM0AIwOMDDAywMgAIwOMDDByMRdSARnYyMWWka/jx8nuT203dh+0cXbuovaOPuWNY0OqvaNPd+Pbt/8D6fCWQ6qnAu0AAAAASUVORK5CYII=;" vertex="1" parent="1">
          <mxGeometry x="180" y="300" width="158.06" height="282.81" as="geometry" />
        </mxCell>
        <mxCell id="GfOAhC3EE9k9zHnXR_BB-9" value="" style="shape=image;verticalLabelPosition=bottom;labelBackgroundColor=default;verticalAlign=top;aspect=fixed;imageAspect=0;image=data:image/png,iVBORw0KGgoAAAANSUhEUgAAAWIAAAJ9CAMAAAA46oibAAAAAXNSR0IArs4c6QAAAARnQU1BAACxjwv8YQUAAAClUExURQAAAAAAAAAAAAAAAAAAAAAAAAAAAAAAAAAAAAAAAAAAAAAAAAAAAAAAAAAAAAAAAAAAAAAAAAAAAAAAAAAAAAAAAAAAAAAAAAAAAAAAAAAAAAAAAAAAAACjpQAAAAAAAAAAAAAAAAAAAAAAAAAAAAAAAAAAAAAAAAAAAAAAAAAAAAAAAAAAAAAAAAAAAAAAAAAAAAAAAAAAAAAAAAAAAAAAAACkpnX8+UYAAAA1dFJOUwAECAoOFRodICEkKywvNjxCRUdJUFhdYmRod3mAgISGjZKYmZ2eoq+yuL/AxczN0tfh7vT53Z/JbAAAAAlwSFlzAAAXEQAAFxEByibzPwAACvRJREFUeF7t2n17E0UUQHFSxVpBiyhGkGJQpPgCpaHh+380752ZTXabFArds0/zcH5/lDbb5uXkZpMZvfO+c3KnOWkXJC8MN7zQxAm90MQJvTATt+8EODk5MTEr82ZmYZxgnIlxJsaZGGdinIlxJsaZGJeJXXqgMrGTjHKPYhImxpkYZ2KciXEmxo2eeL5aPW3fXu3g/OKH7uvQ8erNV+3b0P+97rdn35ZDlxyvNt7dbRd+ksPny9Xq7ZPerY9k7MSzV6tBpN1ukPjh8lE9NnTjxDEaxdlnPT8fMnbio+Xb16udEbZ9PHHV/714Cj987Qfn13gVbTtarl7Ey+PhcnXaLhkFsfRYrE7n172XROI4/vEX0Q5xv8u/x6vt+3QDmXfkPYqYoUdHy2veSyLx4vNOE+ur/eir5NOM/laXhd7djXtZX6qLdm+PlvmwD5+/jlPdvz/nJTVal65/JBJ//Xi5unh5L3/q/175Ws+YT9dPRHcTnc0Qzh7HlbZ3r7gD3+SPZ+Um2rGLF7um/dYnrnWzc/503F58i7yweztZvYhLBokHR45XZ/+UHy7ykV6VePaq/GVcNpzZOKO2E3F8V5Tfi9dVPomhHD2st7DzlHDtl+D1jJ+43sE8W+RPLUBpk28nMTXx6OpvbL4Oj+Qng/gxfsq/7f9e/dqmbF5jdU9iEzfcfo7vcmTv16vJ3s/WVxpXcfZ9vnbaJAwsPu9UfpXxE8/rHezu5yKjRIf4qR3JRxuJ+tGGRyJxiVc/GFyZ+GjZbqg8l53NiXjevqtXE1ddrrROQHeD9dU1FK+SwTXe1OiJu/HtXm3H5TEMOtRf6Ufr1CPdSaaGuDJxPVNcOk/MNyfi7u2gXk13f8pNtGsI22+tUXir+o2Mnrj3+b+8YGevyuPrOnz3069/xUt2R+LNkfXDLq2vTBwxosXwPBG33trF724yxtV0d6FcHF/WBs9QKZzvByMaPfGi3fNQ7/w8qrTT5lF7j9lOPDiyTlyyXJ24nCkuvz7WwTeJy9VcL/Hs97FnePzE9Wzavqtdl4/am38O+H9/Pvnx/ta5eHjkulOcVzs4T8SB9pdhk3jnFLdjQ3EFF7+070eTicdcenTvMaG94c1endY3prj/pyXA1tvdpSPXPBeXM8XgPLHofwaL32rz2M7FvcSbYwNxce8KxpKJR5zk/n3vzovzd7+Vb9ajE+eS+KYX7dKR+MNyJXFx/PuBxAfnp/3zRO9EnC5/ouglzmNlXVPzN3G97dJRjbxH0V/ex4MpExajWR5dPII38QjKh/54lL1ol47kaWPzEXZn4vY8Li5e13CpOzN14vbzc/GD7nNxP3F8vYhjeerdPCu9V+DYRkw8+NTePkCti2S69Kxc0I82PBLn4j/Kj+XPtxPnsNdnL/5uc55YrxCLKBfNi/I3w8TrY71nJY6s9c4+oxgvcdzL3iB1Y5WfKYoHf8fjfXmvvjoH0QZHInHZo6gbCDsSz563DenWq9pKfHmPop+47VHUbZBqXT3c3sRTOzjvvWhus/1N3D5v3357m/iwnjf2wJ4mzje9PRnifU2cuwn7cSbe53PxXvD/zMRl3pH/86iGnGCciXEmxpkYZ2KciXEmxpkYl4ldeqAysZOMco9iEibGmRhnYpyJcSbGmRhnYpyJUS49cJnXPQqUE4wzMc7EOBPjTIwzMc7EOBPjMrFLD1QmdpJR7lFMwsQ4E+NMjDMxzsQ4E+NMjDMxyqUHLvO6R4FygnEmxpkYZ2KciXEmxpkYZ2JcJnbpgcrETjLKPYpJmBhnYpyJcSbGmRhnYpyJcSZGufTAZV73KFBOMM7EOBPjTIwzMc7EOBPjTIzLxC49UJnYSUa5RzEJE+NMjDMxzsQ4E+NMjDMxzsQolx64zOseBcoJxpkYZ2KciXEmxpkYZ2KciXGZ2KUHKhM7ySj3KCZhYpyJcSbGmRhnYpyJcSbGmRjl0gOXed2jQDnBOBPjTIwzMc7EOBPjTIwzMS4Tu/RAZWInGeUexSRMjDMxzsQ4E+NMjDMxzsQ4E6NceuAyr3sUKCcYZ2KciXEmxpkYZ2KciXEmxmVilx6oTOwko9yjmISJcSbGmRhnYpyJcSbGmRhnYpRLD1zmdY8C5QTjTIwzMc7EOBPjTIwzMc7EuEzs0gOViZ1klHsUkzAxzsQ4E+NMjDMxzsQ4E+NMjHLpgcu87lGgnGCciXEmxpkYZ2KciXEmxpkYl4ldeqAysZOMco9iEibGmRhnYpyJcSbGmRhnYpyJUS49cJnXPQqUE4wzMc7EOBPjTIwzMc7EOBPjMrFLD1QmdpJR7lFMwsQ4E+NMjDMxzsQ4E+NMjDMxyqUHLvO6R4FygnEmxpkYZ2KciXEmxpkYZ2JcJnbpgcrETjLKPYpJmBhnYpyJcSbGmRhnYpyJcSZGufTAZV73KFBOMM7EOBPjTIwzMc7EOBPjTIzLxC49UJnYSUa5RzEJE+NMjDMxzsQ4E+NMjDMxzsQolx64zOseBcoJxpkYZ2KciXEmxpkYZ2KciXGZ2KUHKhM7ySj3KCZhYpyJcSbGmRhnYpyJcSbGmRjl0gOXed2jQDnBOBPjTIwzMc7EOBPjTIwzMS4Tu/RAZWInGeUexSRMjDMxzsQ4E+NMjDMxzsQ4E6NceuAyr3sUKCcYZ2KciXEmxpkYZ2KciXEmxmVilx6oTOwko9yjmISJcSbGmRhnYpyJcSbGmRhnYpRLD1zmdY8C5QTjTIwzMc7EOBPjTIwzMc7EuEzs0gOViZ1klHsUkzAxzsQ4E+NMjDMxzsQ4E+NMjHLpgcu87lGgnGCciXEmxpkYZ2KciXEmxpkYl4ldeqAysZOMco9iEibGmRhnYpyJcSbGmRhnYpyJUS49cJnXPQqUE4wzMc7EOBPjTIwzMc7EOBPjMrFLD1QmdpJR7lFMwsQ4E+NMjDMxzsQ4E+NMjDMxyqUHLvO6R4FygnEmxpkYZ2KciXEmxpkYZ2JcJnbpgcrETjLKPYpJmBhnYpyJcSbGmRhnYpyJcSZGufTAZV73KFBOMM7EOBPjTIwzMc7EOBPjTIzLxC49UJnYSUa5RzEJE+NMjDMxzsQ4E+NMjDMxzsQolx64zOseBcoJxpkYZ2KciXEmxpkYZ2KciXGZ2KUHKhM7ySj3KCZhYpyJcSbGmRhnYpyJcSbGmRjl0gOXed2jQDnBOBPjTIwzMc7EOBPjTIwzMS4Tu/RAZWInGeUexSRMjDMxzsQ4E+NMjDMxzsQ4E6NceuAyr3sUKCcYZ2KciXEmxpkYZ2KciXEmxmVilx6oTOwko9yjmISJcSbGmRhnYpyJcSbGmRhnYpRLD1zmdY8C5QTjTIwzMc7EOBPjTIwzMc7EuEzs0gOViZ1klHsUkzAxzsQ4E+NMjDMxzsQ4E+NMjHLpgcu87lGgnGCciXEmxpkYZ2KciXEmxpkYl4ldeqAysZOMco9iEibGmRhnYpyJcSbGmRhnYpyJUS49cJnXPQqUE4wzMc7EOBPjTIwzMc7EOBPjMrFLD1QmdpJR7lFMwsQ4E+NMjDMxzsQ4E+NMjDMxyqUHLvO6R4FygnEmxpkYZ2KciXEmxpkYZ2JcJnbpgcrETjLKPYpJmBhnYpyJcSbGmRhnYpyJcSZGufTAZV73KFBOMM7EOBPjTIwzMc7EOBPjTIzLxC49UJnYSUa5RzEJE+NMjDMxzsQ4E+NMjDMxzsSozdLjJP7prBfUXljd8MK2R0HfzJd84Y6LJrvtL+LC9+//B/fgr7Qhr/xiAAAAAElFTkSuQmCC;" vertex="1" parent="1">
          <mxGeometry x="425" y="300" width="155.6" height="280" as="geometry" />
        </mxCell>
        <mxCell id="GfOAhC3EE9k9zHnXR_BB-17" style="edgeStyle=orthogonalEdgeStyle;rounded=0;orthogonalLoop=1;jettySize=auto;html=1;exitX=0.5;exitY=1;exitDx=0;exitDy=0;entryX=0.5;entryY=0;entryDx=0;entryDy=0;" edge="1" parent="1" source="GfOAhC3EE9k9zHnXR_BB-10" target="GfOAhC3EE9k9zHnXR_BB-15">
          <mxGeometry relative="1" as="geometry" />
        </mxCell>
        <mxCell id="GfOAhC3EE9k9zHnXR_BB-18" style="edgeStyle=orthogonalEdgeStyle;rounded=0;orthogonalLoop=1;jettySize=auto;html=1;exitX=0.5;exitY=1;exitDx=0;exitDy=0;entryX=0.5;entryY=0;entryDx=0;entryDy=0;" edge="1" parent="1" source="GfOAhC3EE9k9zHnXR_BB-10" target="GfOAhC3EE9k9zHnXR_BB-13">
          <mxGeometry relative="1" as="geometry" />
        </mxCell>
        <mxCell id="GfOAhC3EE9k9zHnXR_BB-34" style="edgeStyle=orthogonalEdgeStyle;rounded=0;orthogonalLoop=1;jettySize=auto;html=1;exitX=1;exitY=0.25;exitDx=0;exitDy=0;entryX=0;entryY=0.25;entryDx=0;entryDy=0;" edge="1" parent="1" source="GfOAhC3EE9k9zHnXR_BB-10" target="GfOAhC3EE9k9zHnXR_BB-31">
          <mxGeometry relative="1" as="geometry" />
        </mxCell>
        <mxCell id="GfOAhC3EE9k9zHnXR_BB-35" value="Metric" style="edgeLabel;html=1;align=center;verticalAlign=middle;resizable=0;points=[];" vertex="1" connectable="0" parent="GfOAhC3EE9k9zHnXR_BB-34">
          <mxGeometry x="-0.4768" y="2" relative="1" as="geometry">
            <mxPoint x="15" as="offset" />
          </mxGeometry>
        </mxCell>
        <mxCell id="GfOAhC3EE9k9zHnXR_BB-10" value="API Gateway" style="shape=image;verticalLabelPosition=bottom;labelBackgroundColor=default;verticalAlign=top;aspect=fixed;imageAspect=0;image=data:image/png,iVBORw0KGgoAAAANSUhEUgAAAH0AAAB9CAMAAAC4XpwXAAAAAXNSR0IArs4c6QAAAARnQU1BAACxjwv8YQUAAAA2UExURecVe+tBlOkkg+1PnPvT5v////3w9+oyi/zi7/BtrO9epPnF3vanzfWZxfOKvfF7tfe21gAAAHixfmsAAAASdFJOU///////////////////////AOK/vxIAAAAJcEhZcwAAFxEAABcRAcom8z8AAAPISURBVGhD7ZrblqsgEETVeIkxOvn/r52qBpRcRBTwTNZhvwBGKaobkHFNkclkMplMJvOfUurSSeV1127Ka9N2ur5O1TZ1r+vxgDa46dY6JW+7xtVX2j7qN3VjRP9G21O9lVsj+dfaQ4fyoq+tA/W6u8sTEfzP2kUxNM12fxe4LopulKcC9S3tovDy3uNuluH+jbZewfC+nXflnYTpP/kmXt6Rd/FODutXb9q78m44pP9Je2feDfv1X/Jt2Jl3g9a/bo9ckM3yxTfZnXeD1n/r8CNUf9c+lHeD6Pu9/D53cDDvBq+HCbx/VIf37Q4w9FpXn4B6sPftyHOf19Unvt+7V97DvK+p+875NN7rphkv/YUWShTsjE2szUqX3aWfEuZd0FXew+Ydqix/ZNwgTeTRgYAq1bmseYiy1JF0kCbykKyH68DfRpRUZ3NE5FliTpR1DZU0kUfetztIOeu8zrRp8h7qPTjy2+vdsdsER/4E70F5Txn57Q4cs+6EOZ8y8id43zXnq2Z4Csi53l/faSl3G2NzsYv3zISiMlcc3oMjr4c/zedWiDUVykeDlw1J7x3RFsPg0TQPFPxzXck7vMfJO8VrGgYIPK9V+E3Jp57zIq6uyHFCxjHLJ/ZO8UE754FD55u/sp5yr+vFrQm7nKhMn9p9sHfnnIfE8uPzYuchL915Huo3OU/OO55e7IoerbZzeA+OPIYPdSOPG5cvtz+4jlbwenfP+YoBVvJ6sQviHO6C8+72rg7vIo/S9MjJKHFIO+cJ3WPXw5xrpa3Fpfdg75v7PNy3qKGNv1+EZQak9G7eZFdUMMilw1I5T/uWsTtA4Oc5t5ByzhvvBNm3mxpH3qNFHsCkmXM2KSNvqZd3/u38RsrIP3cw73MWDvWYkV/BkfeYkV8h2LvnnP9MSu/bHZw051dweA+O/F/3/mfVv3zOTyVAlQWP1bpplTjehXl3qAuo8mRLETax2+MJOWkg7CDMuyPyAqqf1HHqiqHu8N4SVB8oKMIm1EsU8o0aRcLIbw8fDyeL/L9d70HegyN/gvdU+/wJ3oNnXVDeU0Y+yLt35FvzbcQmxHuHbcg78k0zTG8DOOy9muDcV73ireB1AMe8VxOeIx7/oCZ0/BAhDOZ7GDnivef7SHqaPMVJOc0DUF8MwG7vxjWk/WacxTKAh/pIsM97X+vHr/ulFdYAEAEvdeW9l2kG2j0Bf8caACpe3luT63Y86NqmHM0A/PKuaMcg1zYXPQAv7yCKaxsOwGfJQvoezbVN6dVrZNeZTCaTyWQyX0JR/AIqIiw0xLKKOQAAAABJRU5ErkJggg==;" vertex="1" parent="1">
          <mxGeometry x="352.18" y="60" width="55" height="55" as="geometry" />
        </mxCell>
        <mxCell id="GfOAhC3EE9k9zHnXR_BB-36" style="edgeStyle=orthogonalEdgeStyle;rounded=0;orthogonalLoop=1;jettySize=auto;html=1;exitX=0.5;exitY=1;exitDx=0;exitDy=0;entryX=1;entryY=0.75;entryDx=0;entryDy=0;" edge="1" parent="1" source="GfOAhC3EE9k9zHnXR_BB-11" target="GfOAhC3EE9k9zHnXR_BB-21">
          <mxGeometry relative="1" as="geometry" />
        </mxCell>
        <mxCell id="GfOAhC3EE9k9zHnXR_BB-37" value="Delete Task" style="edgeLabel;html=1;align=center;verticalAlign=middle;resizable=0;points=[];" vertex="1" connectable="0" parent="GfOAhC3EE9k9zHnXR_BB-36">
          <mxGeometry x="-0.4038" y="-1" relative="1" as="geometry">
            <mxPoint as="offset" />
          </mxGeometry>
        </mxCell>
        <mxCell id="GfOAhC3EE9k9zHnXR_BB-39" style="edgeStyle=orthogonalEdgeStyle;rounded=0;orthogonalLoop=1;jettySize=auto;html=1;entryX=1;entryY=0.5;entryDx=0;entryDy=0;" edge="1" parent="1" source="GfOAhC3EE9k9zHnXR_BB-11" target="GfOAhC3EE9k9zHnXR_BB-10">
          <mxGeometry relative="1" as="geometry" />
        </mxCell>
        <mxCell id="GfOAhC3EE9k9zHnXR_BB-11" value="cleaner" style="shape=image;verticalLabelPosition=bottom;labelBackgroundColor=default;verticalAlign=top;aspect=fixed;imageAspect=0;image=data:image/png,iVBORw0KGgoAAAANSUhEUgAAAH0AAAB9CAMAAAC4XpwXAAAAAXNSR0IArs4c6QAAAARnQU1BAACxjwv8YQUAAAA2UExURe1xAPCMMPKVQO56EPWvcP////OdUPvbv/727/3t3/SmYPjKn++DIPzkz/nTr/a4gPfBjwAAAC037dYAAAASdFJOU///////////////////////AOK/vxIAAAAJcEhZcwAAFxEAABcRAcom8z8AAAPMSURBVGhD7ZqNcpswEIT925A4tnn/p+0eHPhAe6LCunQ61Zemo9HYWq1Ap4X20Gg0Go1Go/GfcTz5nPUzYVyuOX7pp6L4UB1Op5+KAuqfHpD/0o8FAXVX4YaZaTOInPp3uPmcupi/azOGrLqYD73ts+qHR7D5vPoR5o/ajiCvfrhfrw9tRrCh/gvmv7UdwIb6ASXnps0AttS/Qs1vqcea31QPNb+pHmp+Wx3muyjz2+pivtdmbaD+6J8vTtpv6ONSBtSXkJXgvTXAObKE2IT5qzYrc+5vFuj8qPklkCfmsUDR+XLk75qHTZIk4/PlyBk2013HewPg5rExY/OlIkkyLazSGxmxZlBYP7RpQMQivfWRJJk+vPLeADqaJIPz5cyJ2uS9AeDKE5t8SeojMTq1yXtrcbzPAYrb5EtSCRSUizZ/3ryMPR9ksPnU5oszlmSaX22GkGPNpwVPwrU2KyN6L/PcpvTGHLSwLu6nwS80T8jrNW1WRWrJyQQbOVKJefRGvMvAufoxDD6Zf1Lz6A0wL2cITK3MpzZjzENWwoM1z58hIp4svqeb2eQ3O5MXvPc9cDk/hypmB+dJEuYr50uxrje4keRvKqW3br6crY+DT7cVt4ndUTVfSgmbq7oZ3M7kRe1XeLK157PLSnKbdSPWwvpCktusmy9XVc1Kcps1U8Z5fZab5O4ftLXMy2m2ULDmMTPyyqbelU+sLwbnL+vqvcUiI9n1xtzIyzreuwMYTdYWg/+MefGZbKqVeXLl08u1C6QpvqcmSW5ztUt3Ii7JmYHB5yLHbeJ77x+03LqMPStymzVShm/dDP06fg01UgZqOrO+LPzcPL76pvkhRmvbsK5+3CZ638uXvvXFUsfkSynoZPq4GVZ7jJrHle8ej/526x/9nr2P2bOMhOq3KqP8GqN3pvxfD+YYvYRVP3SliyS3/QS7gHl4aKQ3g3nGMRwvzyf+PJ3bJ4uJ0RZmfSNGY48Uq2MbTzHawqufc4uM7FFflpQJpwSI+WRFJnao8wrmlQDpd83vUOfWnRKwDHtrytUd6/71zSTJcnVu3SkBguwFJ0wVq+MLLJjJPtBmAguAI8Xq3Hpyvlh4vhRK1SWskb2es46pdU6MLlVPD5IBZ0UU98oXqtNqOu6D3PMZJkevfKG6U1Ly1odJ02eIMvWMdW06ONMrU3di9Jb1QYbNr0hdrHfdPfnp+LoaJE+YL8w/Jeqoplf4JGw+l+LiCPJt+1vqndK5Z+iEvOKhuDUqZfwftPh79edP3oboN1e/m9NuNBqNRqPR+Mc5HH4DibAooy9pUHsAAAAASUVORK5CYII=;" vertex="1" parent="1">
          <mxGeometry x="475.3" y="180" width="55" height="55" as="geometry" />
        </mxCell>
        <mxCell id="GfOAhC3EE9k9zHnXR_BB-22" style="edgeStyle=orthogonalEdgeStyle;rounded=0;orthogonalLoop=1;jettySize=auto;html=1;entryX=1;entryY=0.5;entryDx=0;entryDy=0;" edge="1" parent="1" source="GfOAhC3EE9k9zHnXR_BB-12" target="GfOAhC3EE9k9zHnXR_BB-21">
          <mxGeometry relative="1" as="geometry">
            <Array as="points">
              <mxPoint x="380" y="440" />
            </Array>
          </mxGeometry>
        </mxCell>
        <mxCell id="GfOAhC3EE9k9zHnXR_BB-23" value="Run Task" style="edgeLabel;html=1;align=center;verticalAlign=middle;resizable=0;points=[];" vertex="1" connectable="0" parent="GfOAhC3EE9k9zHnXR_BB-22">
          <mxGeometry x="-0.1119" y="-1" relative="1" as="geometry">
            <mxPoint as="offset" />
          </mxGeometry>
        </mxCell>
        <mxCell id="GfOAhC3EE9k9zHnXR_BB-24" style="edgeStyle=orthogonalEdgeStyle;rounded=0;orthogonalLoop=1;jettySize=auto;html=1;entryX=1;entryY=0.5;entryDx=0;entryDy=0;" edge="1" parent="1" source="GfOAhC3EE9k9zHnXR_BB-12" target="GfOAhC3EE9k9zHnXR_BB-10">
          <mxGeometry relative="1" as="geometry">
            <Array as="points">
              <mxPoint x="440" y="208" />
              <mxPoint x="440" y="88" />
            </Array>
          </mxGeometry>
        </mxCell>
        <mxCell id="GfOAhC3EE9k9zHnXR_BB-26" value="Change Target" style="edgeLabel;html=1;align=center;verticalAlign=middle;resizable=0;points=[];" vertex="1" connectable="0" parent="GfOAhC3EE9k9zHnXR_BB-24">
          <mxGeometry x="0.0383" relative="1" as="geometry">
            <mxPoint y="6" as="offset" />
          </mxGeometry>
        </mxCell>
        <mxCell id="GfOAhC3EE9k9zHnXR_BB-12" value="traffic guard" style="shape=image;verticalLabelPosition=bottom;labelBackgroundColor=default;verticalAlign=top;aspect=fixed;imageAspect=0;image=data:image/png,iVBORw0KGgoAAAANSUhEUgAAAH0AAAB9CAMAAAC4XpwXAAAAAXNSR0IArs4c6QAAAARnQU1BAACxjwv8YQUAAAA2UExURe1xAPCMMPKVQO56EPWvcP////OdUPvbv/727/3t3/SmYPjKn++DIPzkz/nTr/a4gPfBjwAAAC037dYAAAASdFJOU///////////////////////AOK/vxIAAAAJcEhZcwAAFxEAABcRAcom8z8AAAPMSURBVGhD7ZqNcpswEIT925A4tnn/p+0eHPhAe6LCunQ61Zemo9HYWq1Ap4X20Gg0Go1Go/GfcTz5nPUzYVyuOX7pp6L4UB1Op5+KAuqfHpD/0o8FAXVX4YaZaTOInPp3uPmcupi/azOGrLqYD73ts+qHR7D5vPoR5o/ajiCvfrhfrw9tRrCh/gvmv7UdwIb6ASXnps0AttS/Qs1vqcea31QPNb+pHmp+Wx3muyjz2+pivtdmbaD+6J8vTtpv6ONSBtSXkJXgvTXAObKE2IT5qzYrc+5vFuj8qPklkCfmsUDR+XLk75qHTZIk4/PlyBk2013HewPg5rExY/OlIkkyLazSGxmxZlBYP7RpQMQivfWRJJk+vPLeADqaJIPz5cyJ2uS9AeDKE5t8SeojMTq1yXtrcbzPAYrb5EtSCRSUizZ/3ryMPR9ksPnU5oszlmSaX22GkGPNpwVPwrU2KyN6L/PcpvTGHLSwLu6nwS80T8jrNW1WRWrJyQQbOVKJefRGvMvAufoxDD6Zf1Lz6A0wL2cITK3MpzZjzENWwoM1z58hIp4svqeb2eQ3O5MXvPc9cDk/hypmB+dJEuYr50uxrje4keRvKqW3br6crY+DT7cVt4ndUTVfSgmbq7oZ3M7kRe1XeLK157PLSnKbdSPWwvpCktusmy9XVc1Kcps1U8Z5fZab5O4ftLXMy2m2ULDmMTPyyqbelU+sLwbnL+vqvcUiI9n1xtzIyzreuwMYTdYWg/+MefGZbKqVeXLl08u1C6QpvqcmSW5ztUt3Ii7JmYHB5yLHbeJ77x+03LqMPStymzVShm/dDP06fg01UgZqOrO+LPzcPL76pvkhRmvbsK5+3CZ638uXvvXFUsfkSynoZPq4GVZ7jJrHle8ej/526x/9nr2P2bOMhOq3KqP8GqN3pvxfD+YYvYRVP3SliyS3/QS7gHl4aKQ3g3nGMRwvzyf+PJ3bJ4uJ0RZmfSNGY48Uq2MbTzHawqufc4uM7FFflpQJpwSI+WRFJnao8wrmlQDpd83vUOfWnRKwDHtrytUd6/71zSTJcnVu3SkBguwFJ0wVq+MLLJjJPtBmAguAI8Xq3Hpyvlh4vhRK1SWskb2es46pdU6MLlVPD5IBZ0UU98oXqtNqOu6D3PMZJkevfKG6U1Ly1odJ02eIMvWMdW06ONMrU3di9Jb1QYbNr0hdrHfdPfnp+LoaJE+YL8w/Jeqoplf4JGw+l+LiCPJt+1vqndK5Z+iEvOKhuDUqZfwftPh79edP3oboN1e/m9NuNBqNRqPR+Mc5HH4DibAooy9pUHsAAAAASUVORK5CYII=;" vertex="1" parent="1">
          <mxGeometry x="352.18" y="180" width="55" height="55" as="geometry" />
        </mxCell>
        <mxCell id="GfOAhC3EE9k9zHnXR_BB-19" style="edgeStyle=orthogonalEdgeStyle;rounded=0;orthogonalLoop=1;jettySize=auto;html=1;exitX=1;exitY=0.5;exitDx=0;exitDy=0;entryX=0;entryY=0.5;entryDx=0;entryDy=0;" edge="1" parent="1" source="GfOAhC3EE9k9zHnXR_BB-13" target="GfOAhC3EE9k9zHnXR_BB-12">
          <mxGeometry relative="1" as="geometry" />
        </mxCell>
        <mxCell id="GfOAhC3EE9k9zHnXR_BB-20" value="Invoke" style="edgeLabel;html=1;align=center;verticalAlign=middle;resizable=0;points=[];" vertex="1" connectable="0" parent="GfOAhC3EE9k9zHnXR_BB-19">
          <mxGeometry x="-0.218" y="-1" relative="1" as="geometry">
            <mxPoint y="-1" as="offset" />
          </mxGeometry>
        </mxCell>
        <mxCell id="GfOAhC3EE9k9zHnXR_BB-13" value="Initializer" style="shape=image;verticalLabelPosition=bottom;labelBackgroundColor=default;verticalAlign=top;aspect=fixed;imageAspect=0;image=data:image/png,iVBORw0KGgoAAAANSUhEUgAAAH0AAAB9CAMAAAC4XpwXAAAAAXNSR0IArs4c6QAAAARnQU1BAACxjwv8YQUAAAA2UExURe1xAPCMMPKVQO56EPWvcP////OdUPvbv/727/3t3/SmYPjKn++DIPzkz/nTr/a4gPfBjwAAAC037dYAAAASdFJOU///////////////////////AOK/vxIAAAAJcEhZcwAAFxEAABcRAcom8z8AAAPMSURBVGhD7ZqNcpswEIT925A4tnn/p+0eHPhAe6LCunQ61Zemo9HYWq1Ap4X20Gg0Go1Go/GfcTz5nPUzYVyuOX7pp6L4UB1Op5+KAuqfHpD/0o8FAXVX4YaZaTOInPp3uPmcupi/azOGrLqYD73ts+qHR7D5vPoR5o/ajiCvfrhfrw9tRrCh/gvmv7UdwIb6ASXnps0AttS/Qs1vqcea31QPNb+pHmp+Wx3muyjz2+pivtdmbaD+6J8vTtpv6ONSBtSXkJXgvTXAObKE2IT5qzYrc+5vFuj8qPklkCfmsUDR+XLk75qHTZIk4/PlyBk2013HewPg5rExY/OlIkkyLazSGxmxZlBYP7RpQMQivfWRJJk+vPLeADqaJIPz5cyJ2uS9AeDKE5t8SeojMTq1yXtrcbzPAYrb5EtSCRSUizZ/3ryMPR9ksPnU5oszlmSaX22GkGPNpwVPwrU2KyN6L/PcpvTGHLSwLu6nwS80T8jrNW1WRWrJyQQbOVKJefRGvMvAufoxDD6Zf1Lz6A0wL2cITK3MpzZjzENWwoM1z58hIp4svqeb2eQ3O5MXvPc9cDk/hypmB+dJEuYr50uxrje4keRvKqW3br6crY+DT7cVt4ndUTVfSgmbq7oZ3M7kRe1XeLK157PLSnKbdSPWwvpCktusmy9XVc1Kcps1U8Z5fZab5O4ftLXMy2m2ULDmMTPyyqbelU+sLwbnL+vqvcUiI9n1xtzIyzreuwMYTdYWg/+MefGZbKqVeXLl08u1C6QpvqcmSW5ztUt3Ii7JmYHB5yLHbeJ77x+03LqMPStymzVShm/dDP06fg01UgZqOrO+LPzcPL76pvkhRmvbsK5+3CZ638uXvvXFUsfkSynoZPq4GVZ7jJrHle8ej/526x/9nr2P2bOMhOq3KqP8GqN3pvxfD+YYvYRVP3SliyS3/QS7gHl4aKQ3g3nGMRwvzyf+PJ3bJ4uJ0RZmfSNGY48Uq2MbTzHawqufc4uM7FFflpQJpwSI+WRFJnao8wrmlQDpd83vUOfWnRKwDHtrytUd6/71zSTJcnVu3SkBguwFJ0wVq+MLLJjJPtBmAguAI8Xq3Hpyvlh4vhRK1SWskb2es46pdU6MLlVPD5IBZ0UU98oXqtNqOu6D3PMZJkevfKG6U1Ly1odJ02eIMvWMdW06ONMrU3di9Jb1QYbNr0hdrHfdPfnp+LoaJE+YL8w/Jeqoplf4JGw+l+LiCPJt+1vqndK5Z+iEvOKhuDUqZfwftPh79edP3oboN1e/m9NuNBqNRqPR+Mc5HH4DibAooy9pUHsAAAAASUVORK5CYII=;" vertex="1" parent="1">
          <mxGeometry x="231.53" y="180" width="55" height="55" as="geometry" />
        </mxCell>
        <mxCell id="GfOAhC3EE9k9zHnXR_BB-27" style="edgeStyle=orthogonalEdgeStyle;rounded=0;orthogonalLoop=1;jettySize=auto;html=1;entryX=0.5;entryY=0;entryDx=0;entryDy=0;" edge="1" parent="1" source="GfOAhC3EE9k9zHnXR_BB-14" target="GfOAhC3EE9k9zHnXR_BB-10">
          <mxGeometry relative="1" as="geometry" />
        </mxCell>
        <mxCell id="GfOAhC3EE9k9zHnXR_BB-28" value="domain.com" style="edgeLabel;html=1;align=center;verticalAlign=middle;resizable=0;points=[];" vertex="1" connectable="0" parent="GfOAhC3EE9k9zHnXR_BB-27">
          <mxGeometry x="-0.1735" relative="1" as="geometry">
            <mxPoint y="1" as="offset" />
          </mxGeometry>
        </mxCell>
        <mxCell id="GfOAhC3EE9k9zHnXR_BB-14" value="" style="shape=image;verticalLabelPosition=bottom;labelBackgroundColor=default;verticalAlign=top;aspect=fixed;imageAspect=0;image=data:image/png,iVBORw0KGgoAAAANSUhEUgAAAH0AAAB9CAMAAAC4XpwXAAAAAXNSR0IArs4c6QAAAARnQU1BAACxjwv8YQUAAAA2UExURYxP/5Na/6Jw/6l7/7eR/9vI/////+ne/76c//j0/9S9/+LT/5pl/8an/82y//Hp/7CG/wAAABGdrxAAAAASdFJOU///////////////////////AOK/vxIAAAAJcEhZcwAAFxEAABcRAcom8z8AAAaVSURBVGhD7ZrpkqQqEIW7tN0l9P2f9p5DJptiF1g9M/eHX0xEYyHkSoI6Xw8PDw8PDw8PD45W//4x2lEbZ15dP2jzzGtstPUB7XQtYe77y05o1n/smRUC+uGlVymGfb3RqxQK7/v8uGJeNA/iV72OEeF58c1gu67jUgSFWyvOwRe3U8qivwS+OYTjOv3hFiMmMGLkwfyWYhGRl/37rb8KrdV3tvpdp+xbGHTGvOVsfRdktIv9wYbViuqCFOmbeDO7bmfea8MsYrKEv++MGcfZyoNZmlMaf9tnJN6qWDRBNUzbyam+YqKELsy6qjqebnc9uLiZebQpClur9lu61KFpX1Rldl5ruwrJuIR9NF3XzWMulruZ0WfGg6OpVpqTRTDTLqpMFbcy74VBm7avaY+mnrmTeUnGmXwxlcy46HuNs7aYee/tSKC/XLi4iHIyzISOqz5Y7EQyhudy+ANxxrmlfqhnrsoTk18BLtl/cFEOlulZM46KKN1s9rZtkfm2nCE2o+9GtkvfrPWGOJH0ZHnJhUt9pDCwi1UITMYm01UfRbpsY+Zp8z2sa86ZaNKEpJ6AKars+6Fvs7WO/lb/MfHKpa/MJ9Wbk0iz3edu2LZtQL05Hprgce0zrg/j1PP2hOKKbwENblffc73e2SahtTOX+V9VcLhKNGVZqqVVBUSq6fReheUkOJwurBwMqLNEnYZUrDcBC0d9D0WqioUFGa++Q6uy1AGqLCaz5ZZOMcnoetdF2iOEteNDsmCaes/JBGIyXO+2jFLCkHumW5NlqUGP2sjBYj/2zoqx+ovrUS3KK5Xgg4UyWOs3Iahdr7+PmndCLTBZHY656p5HWVulBSdUn6sEPwU21LopUKmD4tWrVfAjUXnq8haLPEiXRjX/VHoSPB/3EfuoYtNp1QuLvQN8kDKOxAAfvOgoI9L1wmLvIL7ti0Yt8XoP0vGrMTP/zbqi9TJsSwAjxGSs9+oNzoLpZCAWfijVmE5bKc3Wb+HRB2M/q3Vha/NOICgf2kpI/BOXOPx+Z8Ene1zwXhf5N4AH7C1eFjBZizP0uPEMHfbl1KwhK93XdQfGSBwOTikkmA7HRzv0ljNlCQ99CgKvrk+ysRBmi06IVpS2cPFo5tnEqxiaHmMbXM/zce0TPDQOpsd5Bh8L4SUWQgv86xIhJAt0q0x7iHQP3UnOwRPbMCyLfXx14kV6rA+IlEarruJggIaNeoR17OH7OhfOZm93+zSVxBfXqjUVqUk83K8z8aEqNj2AKROtmNyx8ylTb4D7ag44QWTkwAPoSf2JHSAUJQCZes0UzvjvgiCSq/4iZrgpNQjJnSxGygy5Ux75kGg41VydxhHoNCTQNL0XgzV+cEvxmg/lKVr1J7CQ0jUGZySej1d6cMNboKm6ENqnE375ObjPa1NgfqbqUEE1GRPlc/cMBsmtdMLhZLL189iszc4SYmWZvjNN0+wzhB80jZx4zMgfQNjFCPjyGC70KZPkETNUOWcITJbMpB628R7cKRp7JwSaWeW7d8Gre4EVvcjxfPtqjxuk8Q4mi7S8ExLWfW/TeKDUHQLk8FOhUZZ28FJQuLxIZIkNKTviwPZad13iTS6WHmxHGl94tJAkiGXSg8N9yt4FC0Irh3fCW3CnlCiWuk+Mp+myaMKTyVuw0NRkrq5ClTPwS5LKhBOu9osj4UzGIlF5LgmwFrtjNvQorbR0vY7iDtsPmUX/FvtR0H4TBNFm+x6ekrQp3+GGYsUVKYD+AQOTlJZ5cbhPdj0zdnNp/jWu9i7OXO4FFdlLid7djcqHLV32U1xgHTucNi2Tl/31jbpRtXLTZF9H639BH5zPNNxklUG+W1js235tl2GTPbazHbmjK/G3TqWNRHeRaEncqTJvWShOa203ToUtTUP36blfTBtLBiO0qhWuay3EzuM/wgQD1Wz5HHOA6rp1V4MNVzZbnAJ2Ea1yuJmWnH22r95yi7g5CaJD03BW2VvuJu1b7h4RdpGROzM5+WTJ1aLvwfpOT3/3YK0my3zMJq+bvLaLWXeXhee+SiIbcXTWHxXk89G21i8L3q8/fkLDD8qOQ16n6sQfJbOpcI/X2AUN5vy00VfpIa03v8Ludo9cGtr//QOm5RieX8T59rDlN+KZKVdvfhct+JH8VmQvnyZ4Gas4QF8SNVabaEP946h8lmEp8n9RNhH5y2gTcflziXaFljrIvrGF/QKyg1WdmX4THHizG+vf4l/Kfnh4eHh4eHj4X/H19R8ltkZlEyf05wAAAABJRU5ErkJggg==;" vertex="1" parent="1">
          <mxGeometry x="624.6800000000001" width="55" height="55" as="geometry" />
        </mxCell>
        <mxCell id="GfOAhC3EE9k9zHnXR_BB-15" value="S3 Website" style="shape=image;verticalLabelPosition=bottom;labelBackgroundColor=default;verticalAlign=top;aspect=fixed;imageAspect=0;image=data:image/png,iVBORw0KGgoAAAANSUhEUgAAAH0AAAB9CAMAAAC4XpwXAAAAAXNSR0IArs4c6QAAAARnQU1BAACxjwv8YQUAAAA2UExURXqhFoKnJYutM5OzQqS+X7TKfMXWmd7nxebt0+7z4vf58P///9Xits3cqLzQiqzEbZu5UAAAAHp0R3IAAAASdFJOU///////////////////////AOK/vxIAAAAJcEhZcwAAFxEAABcRAcom8z8AAARXSURBVGhD7ZrrtqMgDIWLeMMq8v5POzsYqq1tNUnPr/GbWWdRVyFcskmg3i4uLi4uLi4u/nucqzxTOX725zhfN20XwnB/Zui7Ns7p7/rh6tjtrO7o2sZzhZ/h6jZw8yvDAn/a0sXf9cDFzZCHfmyb2Xu3nWT4QF3Hqdv2sP1FB5x/mB6m6Ct+/Ik0tx1//T60RjdwsbQ0zkeGV1IsPejOV9rh2mXYfZQ30nAHRq19n5dxmLT1m8UNWv4owrXZdsMfVaQ8d728+27Mtq3bR6LxD2L3p5F3v9i6yG8HYUM16lgFw3g0NXH5JBO8lYtmZgyeiyfBxJv8bUuFwXPxJFitwEUzaKvn4kkSOR2XjdSQnXAVyVXu/Q/cbtk2hDuOozp2t0eMyu3U/PksJbC1ljgRS8iVWke9aakbFDEGuNTlEQwN/khbwHLFEicwA7NoCZwvCckQHbkQPz8NrJOj1muuMMb6RBecb9q+LFuIeAL5iNXzqONKpM6EcYp1qnYzSblV044PuyCwy0DuGuvr9lg/3GdlCKFf2OfX96FbnQWbtjjEk+SeJjrFcd+FNwxdW/ttTYRqqctnye09tUpNHJ9S18JAyW6c35xr8G259f5rJaxzqlOd/ydffTtMoWtSwd1u8LWfRDl5hCMgOWFO8B7kKYpwhS3qJ/kF2lFYf5KcAY3gFslx8TP7bWeHSnDZVw92Vgqf4ShbVgkuV0tcfE+16P5g+MffeMuh5PiE+V0ZOsFxjP0GnXbA9+wTzqtKTzG075LLGRvxLf/SCvew15z7EZ/t6wSX09oDwVPWEngGxg++rxRc9lYufSSRKjj/Cm+tKAWXrX+X3IOS/72ZYzzVBStJlEssgNcEnASnO4kfSu4JD//Kpp4mGq5LKIZ/KLlX5rIA61gbuC49koc59Ft49rwlzn8fE0CCo5uI43jwiirGlgW4j7kDcAfMen4mXXxU4ZKI9QTkS6iikCCdfKyY7rK14mvGTFYBeZ9w8OqdAqSyAvcwxZTo5kzYFhZNILkdawcWhNYheGNiubUvzZAhFbv1ln7SCKETzyKsGy+usHYzF+VgvrikxOK3ZF2TEa6YGkDXdYJnNJcmK9aTJKwbHEcWY/cgwinOcAVxjH0BvTecgw/T2gNsm6X2IFLgCKfFaN2oWFQ3dJ6OGxbrpp3S7DY2yc0mwVklZxNcnjtpWrsB66Y6QRZsK2cUnFFyby9bJcC6OsrRXmWzjiinTg9sEY5AYqaWnO6OdIslrbUKztZ/q+Bsaa1ZcCbJWbNCoJecNcIR+gFYIxwBySnbwFZhPIctKblmw8kvm1iXPasWwxfmGDXZtuotgxyBGE93oJzbDVnRhsdFUJjmAwH79HgP79PFrZwqT/9C/h349U23ytOrbXxdBsL0M9uZtOkAEwr8uRDGMz+Vi6nXN/c+EPpx/u2on3G7VxgzQ48FSU+/Pf8pFdY6//OHrzteXFxcXFxcXPwf3G7/ACQ9Pf3NPwVXAAAAAElFTkSuQmCC;" vertex="1" parent="1">
          <mxGeometry x="110" y="180" width="55" height="55" as="geometry" />
        </mxCell>
        <mxCell id="GfOAhC3EE9k9zHnXR_BB-21" value="ECS Fargate Task" style="shape=image;verticalLabelPosition=bottom;labelBackgroundColor=default;verticalAlign=top;aspect=fixed;imageAspect=0;image=data:image/png,iVBORw0KGgoAAAANSUhEUgAAAH0AAAB9CAMAAAC4XpwXAAAAAXNSR0IArs4c6QAAAARnQU1BAACxjwv8YQUAAAA2UExURe1xAPCMMO56EPfBj////++DIPKVQP727/SmYPWvcPzkz/a4gPnTr/jKn/OdUP3t3/vbvwAAAP9fa9sAAAASdFJOU///////////////////////AOK/vxIAAAAJcEhZcwAAFxEAABcRAcom8z8AAAXQSURBVGhD7VrbkqsgEFQTNbfN7v9/7emeGWBQkoqiqfNg11aJGmmm5wLiNgcOHDhw4MCBAweAtrNGFxrfQ3c6n3tpDeP59F3+7jKez+ertK9onS/S/A6GGxmNHSIANxVif3QnGg4o+11Pzj9ytjdE9PMD5kf2xw8vjfvLr6Lfns3Dsf80/a9c3ld+FX28IsZzdkhC+vNJLu2Dp1j4JxZO2Zte5P/dS/4WhCK6YMYO82VwP3skvxNdUGAP2be9/IMTXVBkD9E32Ok2yEUXlNljQm4X/VPRBa/Ym0aib7Paa6K3dmp4zd70UhN+Jw+sgibSqEwOb9g3S34TvTCFvmU3+Strr9bVqegCsnd93zPLCuxNq9G/Pvm5giiJTrR/vGf4LUZ4lfy6ghhLpWs46QTvUFredOvlfy16ZnZCKcVnNepDPAspLtDCA5yGtsWhH55aX+H+gv16byk9n/opPHSVUgaIP3EkY6C3LMjQc7RLnY8OC490YvgfpB/lFCdiLwS+qcg8mwC/vlvzUxTZdQ65NAgJ6S+yPzGcTpxVWN4g9rZgb9k9rAOXkpJd7nS4c1Vlxhn9NuykkH5w76FXwjBY8G56mIfYJuwdZB9ljsUodAJP7EEOHn/lSsIm7JRVCkcf7UvsHJHcZIFTYSK2YGe3egWvThba0e9CodWeg8yXNhuwk8hsQv/Wm7OdUa8tVsLM9Ruwg9J6Z3KbcY6dTeNEK5v06tlZU62QJbfHWkfEUEwJaahnh+mhjCEAmFyE8zsFD3UWA/GBB/biJP0GYHcD7pNlDLrQt1OeqR4uT4yvth1dxyxOQZexY1AhMGi8s3YFO/gceyjsBNphveDZU9DLw7G91vb0iA80hnx4q/B+n7aT9Ov8nmx3gSZxHkfiWdCOCyGMMK2nav0OV8cM9nZlNqIda1ymXHbyGTK/gz2+wjHzrZmzIx6iwC4BsjD9FNmAnaubwYW/9zVJoto+BNfYnikPkrYzsGNrdmTvrcmlxcmaFCixr7M9Y18Oe7be79bfMtiz1X6nwMsRw3ELv/c93hnxh4p6C22pQuGEJKGN0Ky1PbG7OYbhHCtPlnH+CZ8Ya2zP/O5mT7JnGRfZGfPW9PNgfZ33xQNmxWSa2h6f8COprrSo85HRp/LU9lht4Kq0v7VC+Yw9Y0HbWvl1uCcw8qUnLSxX2J75naU2OJ6MoeeM3ZVjPJzmxGq/s7sot08ApwPbYVR+MVLvdzEyGObmMm87c9+aSAu/k1HrdwmpoKXrzLMjF8Iv+D7hGKv9LrO6Ge/Sz7OnFOc7FxG26qv9Lsab5/3cDQ5r8Qf2AALjIRsso24lVPtd3aq2OYO97QgHFYfjxAIPEgGkrfe79qZSpiWjY6drxFJ4QMla2AxcNvA7AJs01dLAHDunPh4vIwSXK2hDD1xGEK6wffKIbJyQ3tVdXLGWud19ISUoBLGCfWK7iMueabFmc7LdXvRsNy9tXOlW7xbsTGm5Cil1eZ/Y4SjoTSrlT8/KXvVSdnQ33/uSLbPbM0qf2HHjLnfHoRVz3d7w9XZb+plCEmY25F7i6EEuOceJHPlrqXBSYC+jjHI2+M+hu9sugAwyKoJ9B9vpdWIMw9Vom7luAQbpMvsKRrRiPm7ch57sWEJexVYYngSeyb8cWrBn++76wXOGv3w7Xff3a+hN/pn74458xDj/NiC/WRrsOTTMCgo+r3/mbDCf4nIjQj+rhKq3GrLv/SKAu3Zo+0xvQ/wfgXqo+0+fJ9CrD4jroAH8sQ/1n0JKH4lWwj7tfRLBmqgu+bbAi+ybYpBYLH3LqoTK/75+2adyO9sU+iXuTf3S+XVj0RO0yr2YsTbMslew6WPufhNmF9ETbLEydf9dHF76eLkxWpnRsv/q0Xq4m8NzaHTF4qsO31t0B11jaPHTLKuZShfDiu/VyuryL+yVeIr71eF7Ztkr2KvCFx2egy+MX/5/Uo/+/p0sO3DgwIEDBw4c+P/RNP8A+Vw2wOMRuLcAAAAASUVORK5CYII=;" vertex="1" parent="1">
          <mxGeometry x="231.53" y="412.5" width="55" height="55" as="geometry" />
        </mxCell>
        <mxCell id="GfOAhC3EE9k9zHnXR_BB-32" style="edgeStyle=orthogonalEdgeStyle;rounded=0;orthogonalLoop=1;jettySize=auto;html=1;exitX=0.5;exitY=1;exitDx=0;exitDy=0;entryX=0.5;entryY=0;entryDx=0;entryDy=0;" edge="1" parent="1" source="GfOAhC3EE9k9zHnXR_BB-31" target="GfOAhC3EE9k9zHnXR_BB-11">
          <mxGeometry relative="1" as="geometry" />
        </mxCell>
        <mxCell id="GfOAhC3EE9k9zHnXR_BB-31" value="Alarm" style="shape=image;verticalLabelPosition=bottom;labelBackgroundColor=default;verticalAlign=top;aspect=fixed;imageAspect=0;image=data:image/png,iVBORw0KGgoAAAANSUhEUgAAAEsAAABLCAMAAAAPkIrYAAAAAXNSR0IArs4c6QAAAARnQU1BAACxjwv8YQUAAAAzUExURQAAAN8QgOcYeOQVeucUfOYWeecVeuYUe+UUeugVe+cVe+gUfOcVe+gVe+cVe+gVe+cVe6mUJCoAAAAQdFJOUwAQIDBAUGBwgI+fr7/P3+8jGoKKAAAACXBIWXMAABcRAAAXEQHKJvM/AAABrklEQVRYR+2Y3ZKDIAxGqyh/gvr+T7sfGBRot1uDF51Zz1XMjmdCakD3cfMrvXLeO6s6uuYjzLISpqccE7WbAiNlWahg8FqOUs8hlJRnEFRLuj96B7o4TY8F+qNJ4XKh+DQG9+b97lGYpvgkHepQFG9odmEj7iwfqo7dMbuulsKEqyv9lOm5O+igofAccNVFoGF1qZ+BNdZ1IcWrC0VMFCbQL96jj99xLcdZPGU+BiNYdgdL9BSeRVaPU5hI9nT74uaw/ziKzxMGcLUixgP6vs4N26GIW+EyWRdKbFKhsuggXJMKjGFtYHHsfTCjG7VWQ/sxdCHSZwfZYKaWZYbDZ7E4h0Zlw68wU55D7HrGF7mENHif8JORGM9GV9b7Z5cwtmAbt9f85cqnIvDuxMOf37riuGY0uqxOYKdsdB0twg7+f1yDK6Ap5rniK2TGlkXAcCFb0OjSMrG/s7FdL7K363YRtyvjdkVuV8bFLqMS+87+OgvXkcVH7QtXwe4q2F0Ftas+CbevuDPZA2Gngu0fPnV2a16dPZr3vcxLO+lztO4lh9T/K129uAByfR+Pxw/lX0wGSYUwAQAAAABJRU5ErkJggg==;" vertex="1" parent="1">
          <mxGeometry x="475.3" y="60" width="55" height="55" as="geometry" />
        </mxCell>
      </root>
    </mxGraphModel>
  </diagram>
</mxfile>
